<?xml version="1.0" encoding="UTF-8"?>
<svg id="Layer_1" data-name="Layer 1" xmlns="http://www.w3.org/2000/svg" xmlns:xlink="http://www.w3.org/1999/xlink" viewBox="0 0 948.79768 154.26">
  <defs>
    <style>
      .cls-1 {
        fill: #d10225;
      }

      .cls-2 {
        isolation: isolate;
      }
    </style>
  </defs>
  <g>
    <path class="cls-1" d="M103.4,30.68771c-8.3,1.10001-10.3,3.89999-13.60001,12.39999l-34.39999,88.5h-4.10001L12.7,41.2877c-3.9-9-6.2-9.5-12.7-10.60001v-3.8h50.7v3.8c-9.5.60001-13,.60001-13,6.3,0,2.89999,3,9.2,4.5,13l19.8,47.59999,19.2-49.60001c1.39999-3.5,3-7.39999,3-10.39999,0-5.89999-4.39999-6.5-13-6.89999v-3.8h32.2v3.80002Z"/>
    <path class="cls-1" d="M135.50001,128.8877h-36v-3.5c5.39999-1.39999,8-1.8,8-9.10001v-44.5c0-6.8-2.3-7.89999-8-8.89999v-3.60001h28.89999v57.5c0,4.7,1.2,8,7.10001,8.60001v3.5ZM117.8,24.7877c6.39999,0,11.60001,5.3,11.60001,11.7,0,6.60001-5.10001,11.60001-11.60001,11.60001-6.89999,0-11.8-5.10001-11.8-11.60001.00002-6.29999,5.00002-11.7,11.8-11.7Z"/>
    <path class="cls-1" d="M159.60001,86.3877c0-20.89999,5.10001-24.3,10.70001-24.3,5.29999,0,7.20001,3.8,8.10001,7.10001,1.20001,4.60001,1.20001,12.39999,1.39999,17.10001h-20.20001v.09999ZM195.50001,109.98771c-2.89999,3.5-8.10001,10.2-17,10.2-14.29999,0-17.60001-15.39999-18.10001-28.3h38c-.5-8.10001-2.39999-34.5-28.70001-34.5-17.29999,0-31,14.3-31,36.60001,0,25.89999,15.39999,37.10001,30.60001,37.10001,12.10001,0,20.70001-4.89999,29.89999-18.89999l-3.69998-2.20001Z"/>
    <path class="cls-1" d="M304.60001,62.7877c-2.89999.60001-5,.89999-7.60001,7.60001l-23.39999,60.7h-3.5l-15.10001-45.8h-.70001l-18.39999,45.8h-3.60001l-22.29999-56.59999c-3.89999-9.89999-4.70001-10.89999-8.60001-11.7v-3.60001h33.5v3.60001c-2.10001.3-5.70001.60001-5.70001,4.60001,0,3.2,5.10001,14.7,12.70001,35l10.29999-25.89999c-1.5-5.10001-2.39999-8.2-3.20001-10-1.39999-3.2-3-3.2-6.70001-3.60001v-3.60001h35.29999v3.60001c-3.89999.3-7.20001.60001-7.20001,3.8s6.29999,22.89999,9.10001,34.7h.29999c4.10001-11.5,11.79999-29.5,11.79999-32.90001,0-4.8-3-5.10001-7.29999-5.60001v-3.60001h20.39999v3.5h-.09991Z"/>
    <path class="cls-1" d="M371.60001,57.3877c-2.70001-10.5-11.79999-27.89999-29.60001-27.89999-7.79999,0-16.20001,4.5-16.20001,14.3,0,8.10001,2.89999,11.39999,15.5,17.8l22.29999,11c5.20001,2.5,16.70001,11.3,16.70001,27.7,0,13.2-9.70001,31.5-37.60001,31.5-14.39999,0-21.20001-5.10001-25.89999-5.10001-3.20001,0-3.89999,2.7-4.5,5.10001h-4.29999v-37.2h4.29999c3,15.2,11.79999,32.2,31.10001,32.2,18.10001,0,18.89999-14.89999,18.89999-16.89999,0-10.10001-7.10001-13.7-16.89999-18.39999l-10.10001-4.8c-25.89999-12.30002-25.89999-25.20001-25.89999-32.20001,0-9.2,4.70001-29.7,33.29999-29.7,12.10001,0,19.20001,5,23.60001,5,3.5,0,4.20001-2.3,5-5.2h4.5v32.79999h-4.19998Z"/>
    <path class="cls-1" d="M408.60001,94.2877c0-17.3.70001-32.2,12-32.2,9.20001,0,11.79999,8.89999,11.79999,32.2,0,19.2-1.20001,32-11.70001,32-12.09998.10001-12.09998-15.7-12.09998-32ZM386.4,94.2877c0,19.60001,13.10001,36.8,34.09998,36.8,20.5,0,33.90002-16.7,33.90002-36.8,0-21-14.09998-36.89999-33.90002-36.89999-20.99997,0-34.09998,17.39999-34.09998,36.89999Z"/>
    <path class="cls-1" d="M535.4,128.8877h-35.40002v-3.5c5-.5,7.09998-3,7.09998-8.60001v-36.60001c0-4.2-.09998-12.5-8.29999-12.5-6.09998,0-12.59998,7.39999-12.59998,8.8v40.40001c0,3.5.5,7.89999,7.40002,8.60001v3.60001h-36.29999v-3.70001c5.40002-1.10001,8-1.7,8-9.10001v-44.5c0-6.8-2-8-8-8.89999v-3.60001h28.79999v10.89999h.29999c2.09998-3.60001,8.70001-12.8,21.5-12.8,8.29999,0,20.20001,4.7,20.20001,21.39999v38c0,3.60001,0,8.3,7.40002,8.60001v3.50002h-.10004Z"/>
    <path class="cls-1" d="M575.4,128.8877h-36v-3.5c5.40002-1.39999,8-1.8,8-9.10001v-44.5c0-6.8-2.29999-7.89999-8-8.89999v-3.60001h28.90002v57.5c0,4.7,1.20001,8,7.09998,8.60001v3.5ZM557.69999,24.7877c6.5,0,11.59998,5.3,11.59998,11.7,0,6.60001-5.09998,11.60001-11.59998,11.60001-6.90002,0-11.70001-5.10001-11.70001-11.60001,0-6.29999,5-11.7,11.70001-11.7Z"/>
    <path class="cls-1" d="M639.69999,115.18771c-7,9.8-16.90002,15.89999-28.79999,15.89999-19.20001,0-32.29999-16.10001-32.29999-34.7,0-29.7,21.5-39,35.5-39,10.70001,0,23.40002,5.60001,23.40002,16.5,0,9.7-9.09998,9.7-10.29999,9.7-8.5,0-8.5-7.39999-8.5-15.60001,0-4.5-3.90002-5.89999-6.09998-5.89999-11.59998,0-12.70001,18.60001-12.70001,25.39999,0,21.2,9.09998,33.40001,20.79999,33.40001,8.59998,0,12.59998-4.39999,16.20001-8.5l2.79993,2.8Z"/>
    <path class="cls-1" d="M639.60001,55.0877c0-5.2,4-9.2,9-9.2s8.90002,3.89999,8.90002,9.2-3.90002,9.2-8.90002,9.2-9-3.89999-9-9.2ZM648.60001,66.18771c6,0,11.20001-4.7,11.20001-11s-5.09998-11-11.20001-11-11.20001,4.7-11.20001,11,5.09998,11,11.20001,11ZM646.30003,55.98771h2.20001l3.40002,5.5h2.20001l-3.59998-5.60001c1.90002-.2,3.29999-1.2,3.29999-3.5,0-2.5-1.5-3.60001-4.5-3.60001h-4.90002v12.7h1.90002v-5.49998h-.00006ZM646.30003,54.3877v-4h2.59998c1.29999,0,2.79999.3,2.79999,1.89999,0,2-1.40002,2.10001-3.09998,2.10001h-2.29999Z"/>
  </g>
  <g>
    
    <path class="cls-1" d="M912.19999,109.8877c0-2.10001,1.59998-3.7,3.59998-3.7s3.59998,1.60001,3.59998,3.7-1.59998,3.7-3.59998,3.7-3.59998-1.59999-3.59998-3.7ZM915.9,114.2877c2.40002,0,4.5-1.89999,4.5-4.39999s-2.09998-4.39999-4.5-4.39999-4.5,1.89999-4.5,4.39999c-.09998,2.60001,2,4.39999,4.5,4.39999ZM914.9,110.2877h.90002l1.40002,2.2h.90002l-1.5-2.3c.79999-.10001,1.29999-.5,1.29999-1.39999,0-1-.59998-1.5-1.79999-1.5h-2v5.10001h.79999v-2.10001h-.00006ZM914.9,109.5877v-1.60001h1.09998c.5,0,1.09998.10001,1.09998.8,0,.8-.59998.8-1.20001.8h-.99994Z"/>
  </g>
</svg>